<svg width="26" height="26" viewBox="0 0 26 26" fill="none" xmlns="http://www.w3.org/2000/svg">
<g filter="url(#filter0_d_26_188)">
<g clip-path="url(#clip0_26_188)">
<g filter="url(#filter1_d_26_188)">
<path d="M17.5 12.735H13.0075C12.1825 12.735 11.545 13.44 11.1475 14.16C10.8328 14.7504 10.3298 15.2187 9.71847 15.4905C9.10709 15.7622 8.42242 15.8218 7.7733 15.6597C7.12418 15.4977 6.54786 15.1233 6.13596 14.596C5.72406 14.0688 5.50021 13.419 5.5 12.75C5.5075 12.225 5.65 11.7 5.9275 11.25" stroke="#3B88AA" stroke-width="2" stroke-linecap="round" stroke-linejoin="round" shape-rendering="crispEdges"/>
</g>
<g filter="url(#filter2_d_26_188)">
<path d="M8.5 12.75L10.8475 8.41501C11.245 7.68751 10.9225 6.78001 10.4725 6.09001C10.2601 5.75034 10.1179 5.37157 10.0543 4.97605C9.99063 4.58052 10.0069 4.17626 10.102 3.78711C10.1971 3.39796 10.3692 3.03181 10.6082 2.71025C10.8471 2.38869 11.148 2.11825 11.4932 1.91487C11.8383 1.71149 12.2207 1.5793 12.6177 1.52609C13.0148 1.47288 13.4185 1.49974 13.805 1.60508C14.1915 1.71041 14.553 1.8921 14.8682 2.1394C15.1833 2.38671 15.4458 2.69464 15.64 3.04501" stroke="#3B88AA" stroke-width="2" stroke-linecap="round" stroke-linejoin="round" shape-rendering="crispEdges"/>
</g>
<g filter="url(#filter3_d_26_188)">
<path d="M13 4.5L15.3475 8.7975C15.745 9.525 16.675 9.75 17.5 9.75C18.2956 9.75 19.0587 10.0661 19.6213 10.6287C20.1839 11.1913 20.5 11.9544 20.5 12.75C20.5 13.5456 20.1839 14.3087 19.6213 14.8713C19.0587 15.4339 18.2956 15.75 17.5 15.75" stroke="#3B88AA" stroke-width="2" stroke-linecap="round" stroke-linejoin="round" shape-rendering="crispEdges"/>
</g>
</g>
</g>
<defs>
<filter id="filter0_d_26_188" x="0" y="0" width="26" height="26" filterUnits="userSpaceOnUse" color-interpolation-filters="sRGB">
<feFlood flood-opacity="0" result="BackgroundImageFix"/>
<feColorMatrix in="SourceAlpha" type="matrix" values="0 0 0 0 0 0 0 0 0 0 0 0 0 0 0 0 0 0 127 0" result="hardAlpha"/>
<feOffset dy="4"/>
<feGaussianBlur stdDeviation="2"/>
<feComposite in2="hardAlpha" operator="out"/>
<feColorMatrix type="matrix" values="0 0 0 0 0.478833 0 0 0 0 0.80106 0 0 0 0 0.845 0 0 0 0.25 0"/>
<feBlend mode="normal" in2="BackgroundImageFix" result="effect1_dropShadow_26_188"/>
<feBlend mode="normal" in="SourceGraphic" in2="effect1_dropShadow_26_188" result="shape"/>
</filter>
<filter id="filter1_d_26_188" x="0.5" y="10.2499" width="22" height="14.4991" filterUnits="userSpaceOnUse" color-interpolation-filters="sRGB">
<feFlood flood-opacity="0" result="BackgroundImageFix"/>
<feColorMatrix in="SourceAlpha" type="matrix" values="0 0 0 0 0 0 0 0 0 0 0 0 0 0 0 0 0 0 127 0" result="hardAlpha"/>
<feOffset dy="4"/>
<feGaussianBlur stdDeviation="2"/>
<feComposite in2="hardAlpha" operator="out"/>
<feColorMatrix type="matrix" values="0 0 0 0 0.268623 0 0 0 0 0.878333 0 0 0 0 0.878333 0 0 0 0.25 0"/>
<feBlend mode="normal" in2="BackgroundImageFix" result="effect1_dropShadow_26_188"/>
<feBlend mode="normal" in="SourceGraphic" in2="effect1_dropShadow_26_188" result="shape"/>
</filter>
<filter id="filter2_d_26_188" x="3.49981" y="0.499512" width="17.1404" height="21.2507" filterUnits="userSpaceOnUse" color-interpolation-filters="sRGB">
<feFlood flood-opacity="0" result="BackgroundImageFix"/>
<feColorMatrix in="SourceAlpha" type="matrix" values="0 0 0 0 0 0 0 0 0 0 0 0 0 0 0 0 0 0 127 0" result="hardAlpha"/>
<feOffset dy="4"/>
<feGaussianBlur stdDeviation="2"/>
<feComposite in2="hardAlpha" operator="out"/>
<feColorMatrix type="matrix" values="0 0 0 0 0.268623 0 0 0 0 0.878333 0 0 0 0 0.878333 0 0 0 0.25 0"/>
<feBlend mode="normal" in2="BackgroundImageFix" result="effect1_dropShadow_26_188"/>
<feBlend mode="normal" in="SourceGraphic" in2="effect1_dropShadow_26_188" result="shape"/>
</filter>
<filter id="filter3_d_26_188" x="7.99981" y="3.49976" width="17.5002" height="21.2502" filterUnits="userSpaceOnUse" color-interpolation-filters="sRGB">
<feFlood flood-opacity="0" result="BackgroundImageFix"/>
<feColorMatrix in="SourceAlpha" type="matrix" values="0 0 0 0 0 0 0 0 0 0 0 0 0 0 0 0 0 0 127 0" result="hardAlpha"/>
<feOffset dy="4"/>
<feGaussianBlur stdDeviation="2"/>
<feComposite in2="hardAlpha" operator="out"/>
<feColorMatrix type="matrix" values="0 0 0 0 0.268623 0 0 0 0 0.878333 0 0 0 0 0.878333 0 0 0 0.25 0"/>
<feBlend mode="normal" in2="BackgroundImageFix" result="effect1_dropShadow_26_188"/>
<feBlend mode="normal" in="SourceGraphic" in2="effect1_dropShadow_26_188" result="shape"/>
</filter>
<clipPath id="clip0_26_188">
<rect width="18" height="18" fill="white" transform="translate(4)"/>
</clipPath>
</defs>
</svg>
